<?xml version="1.0" standalone="no"?>
<!DOCTYPE svg PUBLIC "-//W3C//DTD SVG 20010904//EN"
 "http://www.w3.org/TR/2001/REC-SVG-20010904/DTD/svg10.dtd">
<svg version="1.0" xmlns="http://www.w3.org/2000/svg"
 width="1067.000000pt" height="1067.000000pt" viewBox="0 0 1067.000000 1067.000000"
 preserveAspectRatio="xMidYMid meet">
<metadata>
Created by potrace 1.14, written by Peter Selinger 2001-2017
</metadata>
<g transform="translate(0.000000,1067.000000) scale(0.100000,-0.100000)"
fill="#000000" stroke="none">
<path d="M5068 10665 c-2 -1 -57 -6 -123 -10 -66 -3 -122 -8 -125 -10 -3 -2
-39 -6 -80 -9 -41 -3 -84 -7 -95 -10 -11 -2 -42 -7 -70 -10 -82 -12 -219 -35
-295 -51 -191 -39 -264 -57 -550 -140 -85 -24 -351 -123 -480 -178 -14 -6 -27
-11 -30 -11 -15 -4 -175 -81 -317 -153 -361 -183 -726 -428 -1048 -704 -255
-219 -575 -559 -782 -834 -39 -51 -95 -130 -126 -175 -20 -30 -54 -80 -74
-111 -145 -216 -349 -593 -433 -799 -12 -30 -26 -63 -31 -73 -11 -20 -120
-307 -123 -322 -1 -5 -14 -46 -28 -90 -15 -44 -34 -107 -43 -140 -9 -33 -21
-71 -25 -85 -7 -22 -19 -66 -25 -95 -2 -6 -12 -49 -23 -95 -12 -47 -24 -100
-27 -118 -3 -18 -12 -63 -19 -100 -8 -37 -17 -87 -21 -112 -3 -25 -8 -52 -10
-60 -2 -8 -7 -40 -11 -70 -4 -30 -8 -66 -10 -80 -2 -14 -6 -52 -9 -85 -4 -33
-8 -70 -10 -83 -20 -120 -27 -731 -11 -902 4 -47 10 -112 12 -145 2 -33 16
-136 29 -230 33 -224 35 -234 45 -275 5 -19 12 -51 15 -70 21 -122 111 -449
175 -635 94 -273 246 -613 382 -854 29 -51 59 -105 67 -120 35 -64 232 -358
320 -476 255 -341 602 -702 926 -962 166 -133 402 -300 550 -390 209 -127 386
-221 635 -336 155 -71 537 -210 695 -252 33 -9 67 -18 75 -20 19 -6 168 -44
195 -50 19 -4 31 -6 95 -20 45 -10 74 -15 155 -30 110 -19 133 -23 185 -30 25
-3 56 -8 70 -10 22 -3 59 -8 175 -20 275 -30 866 -26 1128 9 26 3 68 8 95 11
26 3 58 8 72 10 14 3 43 7 65 11 89 12 349 67 495 104 476 120 984 333 1415
593 284 172 594 401 820 607 77 69 345 338 399 400 27 30 59 67 73 82 24 27
142 172 198 243 42 54 225 314 225 321 0 3 11 20 24 37 62 83 234 390 330 590
86 179 244 578 271 687 2 8 16 56 30 105 53 181 119 464 140 600 21 138 35
239 41 300 3 39 8 77 9 87 19 99 26 716 11 893 -4 50 -9 110 -11 135 -2 25 -6
68 -10 95 -3 28 -8 66 -10 85 -2 19 -11 78 -19 130 -44 284 -106 546 -192 810
-113 352 -263 690 -452 1021 -73 128 -248 401 -284 444 -5 5 -33 44 -64 85
-434 591 -1063 1139 -1714 1495 -84 46 -406 205 -415 205 -2 0 -29 11 -59 25
-30 14 -57 25 -59 25 -3 0 -22 8 -43 17 -63 27 -342 127 -384 138 -8 2 -62 18
-120 35 -129 38 -310 81 -450 109 -160 31 -203 38 -420 66 -19 3 -70 7 -113
11 -43 3 -88 8 -100 11 -23 5 -663 13 -669 8z"/>
</g>
</svg>
